<?xml version="1.0" encoding="iso-8859-1"?>
<!-- Generator: Adobe Illustrator 19.0.0, SVG Export Plug-In . SVG Version: 6.00 Build 0)  -->
<svg version="1.1" id="Layer_1" xmlns="http://www.w3.org/2000/svg" xmlns:xlink="http://www.w3.org/1999/xlink" x="0px" y="0px"
	 viewBox="0 0 512.004 512.004" style="enable-background:new 0 0 512.004 512.004; fill: #fff;" xml:space="preserve">
<g>
	<g>
		<g>
			<path d="M106.669,298.667v-85.333c0-23.531,19.136-42.667,42.667-42.667h76.501c1.92,0,3.797-0.512,5.44-1.493l99.072-59.456
				c6.613-3.989,14.827-4.075,21.504-0.277c4.459,2.517,7.616,6.571,9.344,11.2l59.947-59.947C376.514,22.912,318.914,0,256.002,0
				c-141.163,0-256,114.837-256,256c0,62.912,22.912,120.512,60.693,165.141l80.619-80.619
				C121.623,336.747,106.669,319.445,106.669,298.667z"/>
			<path d="M451.309,90.863l-88.64,88.64v204.501c0,7.68-4.117,14.784-10.816,18.56c-3.264,1.856-6.891,2.773-10.517,2.773
				c-3.797,0-7.595-1.003-10.987-3.051l-99.072-59.435c-1.643-1.003-3.52-1.515-5.44-1.515h-25.003L90.861,451.311
				c44.629,37.781,102.229,60.693,165.141,60.693c141.163,0,256-114.837,256-256C512.002,193.092,489.09,135.492,451.309,90.863z"/>
		</g>
	</g>
</g>
<g>
</g>
<g>
</g>
<g>
</g>
<g>
</g>
<g>
</g>
<g>
</g>
<g>
</g>
<g>
</g>
<g>
</g>
<g>
</g>
<g>
</g>
<g>
</g>
<g>
</g>
<g>
</g>
<g>
</g>
</svg>
